<svg width="121" height="120" viewBox="0 0 121 120" fill="none" xmlns="http://www.w3.org/2000/svg">
<path d="M112.629 89.9999C113.466 88.5506 113.986 86.9175 113.986 85.451V34.5484C113.986 33.082 113.467 31.4493 112.629 30L78.0782 33.1129L54.3096 59.9998L73.1981 86.9381L112.629 89.9999Z" fill="#0071FF"/>
<path d="M65.2848 118.9L109.368 93.4489C110.638 92.7156 111.792 91.4496 112.629 89.9998L60.6675 60L26.4709 61.2086L8.70605 90.0003C9.54265 91.4496 10.6973 92.7161 11.9669 93.4489L56.05 118.9C58.5895 120.366 62.7455 120.366 65.2848 118.9Z" fill="#0071FF"/>
<path d="M112.629 29.9998C111.792 28.55 110.638 27.284 109.368 26.5508L65.2849 1.09983C62.7455 -0.366609 58.5896 -0.366609 56.05 1.09983L11.9669 26.551C9.42714 28.017 7.34961 31.6163 7.34961 34.5487V85.4513C7.34961 86.9177 7.86928 88.5508 8.70634 90.0002L60.6678 60.0001L112.629 29.9998Z" fill="#0071FF"/>
<path d="M60.6674 95.5458C41.0677 95.5458 25.1221 79.6002 25.1221 60.0005C25.1221 40.4007 41.0677 24.4551 60.6674 24.4551C73.3145 24.4551 85.1098 31.261 91.4495 42.2166L76.0664 51.1184C72.8935 45.6347 66.9926 42.2279 60.6677 42.2279C50.8677 42.2279 42.8949 50.2005 42.8949 60.0005C42.8949 69.8002 50.8674 77.773 60.6677 77.773C66.9933 77.773 72.8942 74.3662 76.0676 68.8816L91.4506 77.7829C85.1107 88.7396 73.3152 95.5458 60.6674 95.5458Z" fill="white"/>
</svg>
