<svg width="120" height="120" viewBox="0 0 120 120" fill="none" xmlns="http://www.w3.org/2000/svg">
<path d="M111.962 89.9999C112.799 88.5506 113.319 86.9175 113.319 85.451V34.5484C113.319 33.082 112.8 31.4493 111.962 30L77.4112 33.1129L53.6426 59.9998L72.5311 86.9381L111.962 89.9999Z" fill="#0071FF"/>
<path d="M64.6178 118.9L108.701 93.4489C109.971 92.7156 111.125 91.4496 111.962 89.9998L60.0005 60L25.8039 61.2086L8.03906 90.0003C8.87565 91.4496 10.0303 92.7161 11.2999 93.4489L55.383 118.9C57.9225 120.366 62.0785 120.366 64.6178 118.9Z" fill="#0071FF"/>
<path d="M111.962 29.9998C111.125 28.55 109.971 27.284 108.701 26.5508L64.6179 1.09983C62.0786 -0.366609 57.9226 -0.366609 55.383 1.09983L11.2999 26.551C8.76015 28.017 6.68262 31.6163 6.68262 34.5487V85.4513C6.68262 86.9177 7.20229 88.5508 8.03935 90.0002L60.0008 60.0001L111.962 29.9998Z" fill="#0071FF"/>
<path d="M60.0004 95.5458C40.4007 95.5458 24.4551 79.6002 24.4551 60.0005C24.4551 40.4007 40.4007 24.4551 60.0004 24.4551C72.6475 24.4551 84.4428 31.261 90.7825 42.2166L75.3994 51.1184C72.2265 45.6347 66.3256 42.2279 60.0007 42.2279C50.2007 42.2279 42.2279 50.2005 42.2279 60.0005C42.2279 69.8002 50.2005 77.773 60.0007 77.773C66.3263 77.773 72.2272 74.3662 75.4006 68.8816L90.7837 77.7829C84.4437 88.7396 72.6482 95.5458 60.0004 95.5458Z" fill="white"/>
<path d="M95.5457 58.0254H91.596V54.0762H87.647V58.0254H83.6973V61.9749H87.647V65.9246H91.596V61.9749H95.5457V58.0254ZM110.356 58.0254H106.406V54.0762H102.457V58.0254H98.5077V61.9749H102.457V65.9246H106.406V61.9749H110.356V58.0254Z" fill="white"/>
</svg>
