<svg width="130" height="130" viewBox="0 0 130 130" fill="none" xmlns="http://www.w3.org/2000/svg">
<g clip-path="url(#clip0_1705_911)">
<path d="M122.827 38.2196C122.826 36.0338 122.359 34.1023 121.413 32.4448C120.485 30.8147 119.094 29.4485 117.229 28.3681C101.83 19.4892 86.417 10.6376 71.0232 1.74957C66.8731 -0.646039 62.8494 -0.558696 58.7301 1.87144C52.6013 5.48605 21.9149 23.0668 12.771 28.3633C9.0048 30.543 7.17236 33.8791 7.1716 38.2158C7.16602 56.0718 7.1716 73.927 7.16602 91.7837C7.16678 93.9213 7.61441 95.8155 8.51807 97.4481C9.44736 99.1274 10.8573 100.532 12.7657 101.636C21.9106 106.932 52.601 124.512 58.7285 128.127C62.8497 130.559 66.8733 130.646 71.0247 128.249C86.4185 119.361 101.833 110.509 117.234 101.631C119.142 100.526 120.552 99.1218 121.481 97.4438C122.384 95.8107 122.833 93.9168 122.834 91.7789C122.834 91.7791 122.834 56.0761 122.827 38.2196Z" fill="#0071FF"/>
<path d="M65.177 64.8262L8.51855 97.4486C9.44785 99.1279 10.8578 100.532 12.7662 101.636C21.9111 106.933 52.6015 124.512 58.729 128.128C62.8502 130.559 66.8738 130.646 71.0252 128.25C86.419 119.361 101.833 110.51 117.234 101.631C119.143 100.527 120.553 99.1223 121.482 97.4442L65.177 64.8262Z" fill="#0071FF"/>
<path d="M122.828 38.2192C122.827 36.0333 122.359 34.1018 121.414 32.4443L65.1768 64.825L121.482 97.4436C122.384 95.8105 122.833 93.9166 122.834 91.7787C122.834 91.7787 122.834 56.0757 122.828 38.2192Z" fill="#0071FF"/>
<path d="M81.6665 74.3781C78.386 80.1953 72.1529 84.1268 64.9993 84.1268C57.8894 84.1268 51.6916 80.2446 48.3946 74.489C46.7386 71.6009 45.869 68.329 45.8723 64.9998C45.8723 54.4363 54.4361 45.873 64.9996 45.873C72.0637 45.873 78.2286 49.7068 81.5421 55.4037L98.26 45.7766C91.615 34.3063 79.2092 26.5889 64.9996 26.5889C43.785 26.5889 26.5879 43.7862 26.5879 64.9998C26.5879 71.9594 28.4391 78.4855 31.6754 84.1151C38.3034 95.6463 50.7448 103.411 64.9993 103.411C79.2797 103.411 91.7409 95.6153 98.3595 84.0499L81.6665 74.3781Z" fill="white"/>
<path d="M114.308 62.8037V59.0047H111.221V55.918H107.422V59.0047H102.792V55.918H98.993V59.0047H95.9062V62.8037H98.993V67.4336H95.9062V71.2331H98.993V74.3193H102.792V71.2331H107.422V74.3193H111.221V71.2331H114.308V67.4336H111.221V62.8037H114.308ZM107.422 67.4336H102.792V62.8037H107.422V67.4336Z" fill="white"/>
</g>
<defs>
<clipPath id="clip0_1705_911">
<rect width="130" height="130" fill="white"/>
</clipPath>
</defs>
</svg>
