<svg width="120" height="120" viewBox="0 0 120 120" fill="none" xmlns="http://www.w3.org/2000/svg">
<g clip-path="url(#clip0_1710_1084)">
<path d="M27.1875 69.375C27.1875 62.2669 32.97 56.4844 40.0781 56.4844H79.9219C83.1527 56.4844 85.7812 53.8559 85.7812 50.625V17.5781C85.7812 7.88555 77.8957 0 68.2031 0H51.7969C42.1043 0 34.2188 7.88555 34.2188 17.5781V27.1875H60C61.9418 27.1875 63.5156 28.7613 63.5156 30.7031C63.5156 32.6449 61.9418 34.2188 60 34.2188H17.5781C7.88555 34.2188 0 42.1043 0 51.7969V68.2031C0 77.8957 7.88555 85.7812 17.5781 85.7812H27.1875V69.375ZM51.7969 17.8125C49.8551 17.8125 48.2812 16.2387 48.2812 14.2969C48.2812 12.3551 49.8551 10.7812 51.7969 10.7812C53.7387 10.7812 55.3125 12.3551 55.3125 14.2969C55.3125 16.2387 53.7387 17.8125 51.7969 17.8125Z" fill="#0071FF"/>
<path d="M102.422 34.2188H92.8125V50.625C92.8125 57.7331 87.03 63.5156 79.9219 63.5156H40.0781C36.8473 63.5156 34.2188 66.1441 34.2188 69.375V102.422C34.2188 112.114 42.1043 120 51.7969 120H68.2031C77.8957 120 85.7812 112.114 85.7812 102.422V92.8125H60C58.0582 92.8125 56.4844 91.2387 56.4844 89.2969C56.4844 87.3551 58.0582 85.7812 60 85.7812H102.422C112.114 85.7812 120 77.8957 120 68.2031V51.7969C120 42.1043 112.114 34.2188 102.422 34.2188ZM68.2031 102.188C70.1449 102.188 71.7188 103.761 71.7188 105.703C71.7188 107.645 70.1449 109.219 68.2031 109.219C66.2613 109.219 64.6875 107.645 64.6875 105.703C64.6875 103.761 66.2613 102.188 68.2031 102.188Z" fill="#0071FF"/>
</g>
<defs>
<clipPath id="clip0_1710_1084">
<rect width="120" height="120" fill="white"/>
</clipPath>
</defs>
</svg>
