<svg width="120" height="120" viewBox="0 0 120 120" fill="none" xmlns="http://www.w3.org/2000/svg">
<path d="M96.1654 42.5128C94.967 42.1034 93.76 41.7221 92.5443 41.369C92.7459 40.5487 92.9318 39.7237 93.1021 38.894C95.8443 25.5581 94.0514 14.8143 87.9318 11.2776C82.0725 7.88386 72.4631 11.4206 62.7693 19.8768C61.8162 20.7112 60.8826 21.5706 59.9686 22.455C59.3592 21.8675 58.7342 21.2925 58.0936 20.73C47.9334 11.6878 37.7498 7.87918 31.6373 11.4276C25.7779 14.8284 24.0365 24.9276 26.5045 37.5675C26.7514 38.8175 27.0287 40.062 27.3365 41.301C25.8951 41.7112 24.5029 42.1495 23.1717 42.6135C11.2748 46.7737 3.66699 53.2964 3.66699 60.0604C3.66699 67.0495 11.8326 74.0573 24.2381 78.3065C25.2443 78.6487 26.26 78.9667 27.285 79.2604C26.9521 80.587 26.6576 81.9284 26.4014 83.2846C24.0576 95.7065 25.8857 105.567 31.7334 108.946C37.7732 112.436 47.9053 108.85 57.7818 100.202C58.5631 99.5174 59.3443 98.7948 60.1256 98.0339C61.1131 98.9885 62.1287 99.9151 63.1725 100.814C72.735 109.059 82.1779 112.389 88.0162 109C94.0514 105.499 96.0131 94.905 93.4654 82.0167C93.2701 81.0323 93.0451 80.0276 92.7904 79.0026C93.5029 78.7917 94.2006 78.5737 94.8834 78.3487C107.774 74.0667 116.172 67.1432 116.172 60.0675C116.167 53.2706 108.315 46.7057 96.1654 42.5128ZM65.9311 23.5096C74.235 16.2651 81.9975 13.4057 85.5365 15.4495C89.3029 17.6268 90.7678 26.4065 88.4006 37.9214C88.2443 38.6714 88.0756 39.419 87.8943 40.1643C82.9388 39.0372 77.9136 38.2416 72.8521 37.7831C69.9542 33.6086 66.7774 29.6347 63.3436 25.8886C64.1842 25.0729 65.0451 24.28 65.9264 23.5096H65.9311ZM36.885 65.8401C37.9021 67.8089 38.9654 69.7534 40.0748 71.6737C41.2045 73.6331 42.3818 75.5636 43.6068 77.4651C40.1242 77.0865 36.6634 76.5287 33.2381 75.794C34.2318 72.5784 35.4553 69.2385 36.885 65.8401ZM36.885 54.5128C35.4787 51.187 34.2881 47.9151 33.3107 44.7557C36.5217 44.0362 39.9436 43.4479 43.5107 43.0026C42.3154 44.8682 41.1654 46.7612 40.0607 48.6815C38.9561 50.6018 37.8951 52.5456 36.8779 54.5128H36.885ZM39.4397 60.1776C40.9209 57.0885 42.5162 54.0589 44.2256 51.0885C45.9334 48.1198 47.7514 45.219 49.6795 42.3862C53.0264 42.1331 56.4576 41.9995 59.924 41.9995C63.3904 41.9995 66.8428 42.1331 70.1873 42.3885C72.0951 45.2151 73.9022 48.1057 75.6084 51.0604C77.3147 54.0151 78.9311 57.0307 80.4576 60.1073C78.9514 63.2073 77.3389 66.2495 75.6201 69.2339C73.9154 72.2026 72.1186 75.112 70.2295 77.962C66.8897 78.1964 63.4326 78.3253 59.917 78.3253C56.4014 78.3253 53.01 78.2151 49.7311 78.0018C47.7889 75.1596 45.9561 72.2464 44.2326 69.262C42.5092 66.2776 40.9092 63.2495 39.4326 60.1776H39.4397ZM79.7803 71.6409C80.9131 69.6753 82.0006 67.6839 83.0428 65.6667C84.4714 68.9059 85.7325 72.2166 86.8209 75.5854C83.3554 76.3658 79.8513 76.9643 76.3232 77.3784C77.5139 75.4893 78.6662 73.5768 79.7803 71.6409ZM82.9959 54.5151C81.9584 52.5385 80.8795 50.5854 79.7592 48.6557C78.6654 46.7526 77.5256 44.8729 76.3397 43.0167C79.9279 43.4714 83.3709 44.076 86.5982 44.8143C85.5606 48.1062 84.3583 51.3439 82.9959 54.5151ZM59.9709 29.3315C62.3113 31.8888 64.5211 34.5625 66.592 37.3425C62.1623 37.1315 57.7295 37.1315 53.2936 37.3425C55.4803 34.4503 57.7186 31.7667 59.9709 29.3315ZM34.0561 15.5925C37.8201 13.4081 46.1428 16.53 54.9154 24.3276C55.4756 24.8268 56.0404 25.3495 56.6029 25.8909C53.1514 29.6365 49.9522 33.6069 47.0264 37.776C41.9762 38.2311 36.9609 39.014 32.0123 40.1198C31.7264 38.9698 31.4686 37.812 31.2389 36.6464C29.1178 25.8112 30.5217 17.6432 34.0561 15.5925ZM28.5693 74.6198C27.6318 74.3526 26.7061 74.0628 25.792 73.7503C20.3076 71.8753 15.7771 69.4284 12.667 66.7635C9.88262 64.3753 8.47168 61.9917 8.47168 60.0604C8.47168 55.9565 14.5795 50.7206 24.7654 47.1698C26.0451 46.7245 27.3357 46.3175 28.6373 45.9487C30.1501 50.8103 31.9822 55.5668 34.1217 60.187C31.9567 64.8711 30.1019 69.6924 28.5693 74.6198ZM54.6154 96.5737C50.249 100.399 45.8756 103.11 42.0201 104.477C38.5561 105.703 35.7975 105.738 34.1311 104.774C30.5826 102.724 29.1061 94.8042 31.1193 84.1823C31.3584 82.9323 31.6318 81.6823 31.9397 80.4323C36.9378 81.509 42.0034 82.2443 47.1014 82.6331C50.0558 86.8239 53.2814 90.8168 56.7576 94.5862C56.0592 95.2729 55.3443 95.9339 54.6154 96.5737ZM60.1045 91.1315C57.8264 88.6682 55.5529 85.9425 53.3357 83.0128C55.4904 83.0971 57.6842 83.1393 59.917 83.1393C62.2092 83.1393 64.4779 83.0901 66.7139 82.9893C64.6505 85.8139 62.4445 88.5315 60.1045 91.1315ZM89.2889 97.8323C88.6186 101.451 87.2709 103.865 85.6045 104.831C82.0584 106.889 74.4764 104.214 66.3014 97.162C65.3639 96.3557 64.4264 95.4909 63.4725 94.5839C66.881 90.7998 70.031 86.7908 72.9014 82.5839C78.0276 82.1495 83.1178 81.3625 88.1357 80.2284C88.3654 81.1565 88.5686 82.0659 88.7451 82.9565C89.8725 88.6518 90.0342 93.8034 89.2889 97.8323ZM93.367 73.776C92.7529 73.9799 92.1201 74.1768 91.4779 74.369C89.9045 69.4845 88.0009 64.7126 85.7803 60.0862C87.9176 55.5215 89.7467 50.8188 91.2553 46.0096C92.4061 46.3448 93.524 46.6964 94.5998 47.069C105.011 50.6596 111.362 55.9753 111.362 60.0604C111.362 64.4198 104.502 70.0776 93.367 73.776Z" fill="#0071FF" stroke="#0071FF"/>
<path d="M60.7123 71.1562C62.707 71.1627 64.6587 70.5771 66.3203 69.4737C67.982 68.3703 69.2788 66.7986 70.0467 64.9576C70.8145 63.1166 71.0188 61.0892 70.6336 59.1321C70.2484 57.175 69.2912 55.3762 67.8831 53.9634C66.4749 52.5507 64.6792 51.5876 62.7234 51.1961C60.7675 50.8045 58.7395 51.0022 56.896 51.764C55.0526 52.5258 53.4766 53.8175 52.3678 55.4756C51.2589 57.1336 50.667 59.0834 50.667 61.0781C50.6642 62.3996 50.9219 63.7087 51.4254 64.9305C51.9288 66.1524 52.6681 67.263 53.601 68.199C54.534 69.1349 55.6422 69.8779 56.8624 70.3853C58.0826 70.8927 59.3908 71.1547 60.7123 71.1562Z" fill="#0071FF"/>
</svg>
