<svg width="160" height="66" viewBox="0 0 160 66" fill="none" xmlns="http://www.w3.org/2000/svg">
<path fill-rule="evenodd" clip-rule="evenodd" d="M41.775 33.826C41.775 37.0567 39.1226 39.7169 35.9967 39.7169C32.7756 39.7169 30.124 37.0567 30.124 33.826C30.124 30.5952 32.7765 28.0303 35.9967 28.0303C39.1226 28.0303 41.775 30.5952 41.775 33.826Z" fill="#0071FF"/>
<path fill-rule="evenodd" clip-rule="evenodd" d="M48.2324 65.7547C47.1279 65.7547 46.2324 64.8593 46.2324 63.7547V2C46.2324 0.895432 47.1279 0 48.2324 0H158C159.104 0 160 0.895431 160 2V63.7547C160 64.8593 159.104 65.7547 158 65.7547H113.404C112.3 65.7547 111.404 64.8593 111.404 63.7547V57.5944C111.404 56.6462 112.073 55.8365 112.988 55.5849C123.634 52.655 131.293 43.0344 131.202 31.1673C131.202 17.389 120.877 5.89192 106.384 5.89192C91.7956 5.89192 81.5646 17.389 81.5646 31.1673C81.5646 42.1218 87.989 50.8484 96.8455 54.5819C98.0799 55.1023 99.374 54.1428 99.374 52.8031V45.7664C99.374 45.0778 99.0147 44.4441 98.4534 44.0451C93.8049 40.741 91.7956 36.0804 91.7956 31.1673C91.7956 22.9952 97.2901 15.9641 106.384 15.9641C115.478 15.9641 120.876 22.9961 120.876 31.1673C120.876 36.5562 117.685 42.2871 113.66 44.4952C112.56 45.0981 111.403 44.1651 111.403 42.9114V39.0582C111.403 37.9536 110.508 37.0582 109.403 37.0582H104.499C103.394 37.0582 102.499 37.9536 102.499 39.0582V63.7547C102.499 64.8593 101.604 65.7547 100.499 65.7547H48.2324ZM78.0606 8.74721C78.0606 7.64264 77.1652 6.74721 76.0606 6.74721H61.7675C56.2739 6.74721 49.7374 10.6428 49.7374 19.6701C49.7374 31.9283 69.0611 37.1544 69.0611 42.2853C69.0611 44.375 67.6401 45.8008 65.84 45.8008H51.8316C50.7271 45.8008 49.8316 46.6962 49.8316 47.8008V53.4911C49.8316 54.5956 50.7271 55.4911 51.8316 55.4911H66.1248C76.8291 55.4911 79.8597 47.6047 79.8597 40.7642C79.8597 30.5967 60.536 23.8495 60.536 19.4787C60.536 17.4833 61.6732 15.7727 64.1362 15.7727H76.0606C77.1652 15.7727 78.0606 14.8773 78.0606 13.7727V8.74721ZM135.477 6.74721C134.372 6.74721 133.477 7.64264 133.477 8.74721V40.8595C133.477 51.5965 138.782 55.492 146.549 55.492H154.78C155.884 55.492 156.78 54.5966 156.78 53.492V47.2303C156.78 46.1257 155.884 45.2303 154.78 45.2303H149.012C145.507 45.2303 143.707 43.9959 143.707 39.5289V8.74721C143.707 7.64264 142.811 6.74721 141.707 6.74721H135.477Z" fill="#0071FF"/>
<path fill-rule="evenodd" clip-rule="evenodd" d="M16.3874 9.21488H0V0.1875H42.1535V9.21488H26.1441V65.6555H16.3874V9.21488Z" fill="#0071FF"/>
</svg>
